<!--?xml version="1.0" encoding="utf-8"?-->
<!-- Svg Vector Icons : http://www.onlinewebfonts.com/icon -->

<svg version="1.1" xmlns="http://www.w3.org/2000/svg" xmlns:xlink="http://www.w3.org/1999/xlink" x="0px" y="0px" viewBox="0 0 256 256" enable-background="new 0 0 256 256" xml:space="preserve">
<metadata> Svg Vector Icons : http://www.onlinewebfonts.com/icon </metadata>
<g><g><path fill="#c12a92" data-title="Layer 0" xs="0" d="M71.4,10c11.7,0,21.2,9.5,21.2,21.2c0,11.7-9.5,21.2-21.2,21.2c-11.7,0-21.2-9.5-21.2-21.2C50.2,19.5,59.6,10,71.4,10L71.4,10z M162.1,118.4c-20.8,39-25.2,75.4-27.2,119.1h80c-0.2-3.6-0.4-4.8-0.5-8.4c-2-41-5-78.3-26.5-110.4c-3.2-4.8,6.6-19,9-22.9c-0.1-0.1-0.1-0.1-0.2-0.2c-1.5-4.4-5.4-8.8-10.6-8.8c-5.2,0-10,5.1-11.1,10.3c-1-5.2-5.9-10.3-11.1-10.3c-5,0-8.8,4-10.5,8.2C155.5,98.7,164.8,113.3,162.1,118.4L162.1,118.4z M153.7,112.2l-4.6-7.9c-5.6,13.7-14.8,39.3-16.4,43.4c-1,2.7-3,4.5-5.4,5c-0.7,0.2-1.4,0.3-2.2,0.3l0,0c-4.3,0-7.9-3.6-7.9-7.9c-1.3-6.6-13.8-61.3-17.5-61.3c-3.9,0-3.2,37-3.9,42.1v108c0,5.9-4.8,10.7-10.7,10.7l0,0c-5.8,0-10.7-4.8-10.7-10.7v-73.1h-6v73.1c0,5.8-4.8,10.7-10.7,10.7l0,0c-5.9,0-10.7-4.8-10.7-10.7v-108c-0.7-5.1-0.1-42.1-3.9-42.1c-4.9,0-1.9,54.4-1.9,61.3c0,4.3-3.7,7.9-7.9,7.9l0,0c-4.3,0-7.9-3.6-7.9-7.9c0-17.6,0-59.2,0-70.2s12.8-17.2,17.2-17.2h10.9l18,60.9l18.1-60.9h11.8h0.3c4.2,0.1,16,6.3,16,17.2c0,6.9,6.3,26.2,10.9,43.9c5.3-14.7,10-28.5,16.3-44.7c1-2.7,3.4-4.5,6-5c2.7-0.7,12.9-0.8,23.4-0.7c10.5-0.1,22.5-0.1,25.2,0.7c2.6,0.5,5,2.3,6,5c9.4,24.4,15.4,43.3,24.9,68c1.6,4.1,0.2,8.3-3.7,10.3l0,0c-4,1.5-7.8-0.5-9.3-4.6c-1.5-4-10.5-28.6-16.1-42.5l-5.7,9.8c0,0.2,0,0.3,0,0.4c26.7,34.5,27.8,85.7,28.2,127.2c0,0.1,0,0.3,0,0.4c0,1.7-1.4,3.1-3.1,3.1h-91.1h0h-0.1c-1.7-0.1-3-1.5-2.9-3.2h0c1.4-34.1,3.8-59,8.4-79.1c4.6-20.2,12.8-35.4,19.7-48.2C154.4,115.4,154.1,113.9,153.7,112.2L153.7,112.2z M175,21.5c11.7,0,21.2,9.5,21.2,21.2c0,11.7-9.5,21.2-21.2,21.2s-21.2-9.5-21.2-21.2C153.7,31,163.2,21.5,175,21.5L175,21.5z M81.8,69.7l2.4-13.9l-12.8,5.9l-12.8-5.9L61,69.7l10.4-5.9L81.8,69.7L81.8,69.7z"/></g></g>
</svg>